<svg width="109" height="109" viewBox="0 0 109 109" fill="none" xmlns="http://www.w3.org/2000/svg">
<g clip-path="url(#clip0)">
<path d="M108.346 54.174C108.346 64.674 105.346 74.974 99.546 83.774C98.346 85.674 97.046 87.374 95.546 89.074C92.146 93.074 88.246 96.474 83.946 99.374C82.746 100.174 81.546 100.874 80.346 101.574C73.846 105.174 66.646 107.374 59.346 108.074C57.646 108.274 55.946 108.274 54.246 108.274C49.546 108.274 44.846 107.674 40.246 106.474C37.646 105.774 35.146 104.874 32.646 103.874C31.346 103.374 30.146 102.774 28.946 102.074C26.046 100.574 23.346 98.774 20.746 96.774C19.546 95.874 18.446 94.874 17.346 93.874C-4.554 73.574 -5.854 39.274 14.446 17.374C34.746 -4.52597 69.046 -5.92597 90.946 14.474C102.046 24.674 108.346 39.074 108.346 54.174Z" fill="white"/>
<path d="M98 54.0217C98 62.5573 95.5626 70.9302 90.8504 78.0838C89.8755 79.6283 88.8193 81.0102 87.6006 82.3922C84.8383 85.6438 81.6697 88.4077 78.1762 90.7651C77.2012 91.4155 76.2263 91.9845 75.2514 92.5535C69.9704 95.48 64.1208 97.2684 58.1899 97.8374C56.8087 98 55.4275 98 54.0464 98C50.2279 98 46.4093 97.5123 42.6721 96.5368C40.5597 95.9677 38.5286 95.2361 36.4974 94.4232C35.4412 94.0168 34.4663 93.529 33.4914 92.96C31.1353 91.7406 28.9416 90.2774 26.8293 88.6516C25.8543 87.92 24.9606 87.1071 24.0669 86.2941C6.27424 69.7921 5.21805 41.9094 21.7108 24.1067C38.2036 6.30408 66.0707 5.16601 83.8633 21.7493C92.8816 30.041 98 41.7468 98 54.0217Z" fill="#ECB811"/>
<path d="M63.5315 61.9291C62.7525 60.9061 61.2746 60.6956 60.2307 61.4592C60.1855 61.4922 60.1417 61.5267 60.099 61.5629C56.7637 63.9502 52.2361 63.9502 48.9008 61.5629C47.9153 60.7281 46.4259 60.8344 45.5742 61.8002C44.7224 62.7659 44.8308 64.2255 45.8163 65.0602C45.8589 65.0964 45.9028 65.1309 45.948 65.1639C50.9964 68.9454 58.0035 68.9454 63.0518 65.1639C64.0959 64.4004 64.3106 62.9521 63.5315 61.9291Z" fill="white"/>
<circle cx="34.5" cy="48.5" r="2.5" fill="white"/>
<circle cx="73.5" cy="48.5" r="2.5" fill="white"/>
</g>
<defs>
<clipPath id="clip0">
<rect width="108.3" height="108.3" fill="white"/>
</clipPath>
</defs>
</svg>
