<?xml version="1.0" encoding="UTF-8"?>
<!DOCTYPE svg PUBLIC "-//W3C//DTD SVG 1.0//EN" "http://www.w3.org/TR/2001/REC-SVG-20010904/DTD/svg10.dtd">
<!-- Creator: CorelDRAW 2020 (64-Bit Evaluation Version) -->
<svg xmlns="http://www.w3.org/2000/svg" xml:space="preserve" width="1.99446in" height="2.6668in" version="1.0" style="shape-rendering:geometricPrecision; text-rendering:geometricPrecision; image-rendering:optimizeQuality; fill-rule:evenodd; clip-rule:evenodd"
viewBox="0 0 81.7 109.25"
 xmlns:xlink="http://www.w3.org/1999/xlink"
 xmlns:xodm="http://www.corel.com/coreldraw/odm/2003">
 <defs>
  <style type="text/css">
   <![CDATA[
    .fil5 {fill:none}
    .fil11 {fill:#B18A0D}
    .fil12 {fill:#D4A60F}
    .fil0 {fill:#ECB811}
    .fil9 {fill:#ECB811}
    .fil10 {fill:white}
    .fil1 {fill:white}
    .fil2 {fill:white;fill-opacity:0.101961}
    .fil8 {fill:white;fill-opacity:0.101961}
    .fil4 {fill:#E08C3E;fill-opacity:0.250980}
    .fil6 {fill:#E08C3E;fill-rule:nonzero;fill-opacity:0.501961}
    .fil7 {fill:url(#id13)}
    .fil3 {fill:url(#id14)}
   ]]>
  </style>
   <clipPath id="id0">
    <path d="M-0 0l81.7 0 0 109.25 -81.7 0 0 -109.25z"/>
   </clipPath>
     <mask id="id1">
  <linearGradient id="id2" gradientUnits="userSpaceOnUse" x1="21.48" y1="-23.43" x2="148.11" y2="147.51">
   <stop offset="0" style="stop-opacity:0.101961; stop-color:white"/>
   <stop offset="1" style="stop-opacity:0; stop-color:white"/>
  </linearGradient>
      <rect style="fill:url(#id2)" x="-31.21" y="-67.23" width="164.39" height="185.65"/>
     </mask>
    <clipPath id="id3">
     <path d="M40.5 80.41c15.15,0 29.27,4.35 41.21,11.87l0 16.97 -81.7 0 0 -17.42c11.78,-7.24 25.65,-11.42 40.5,-11.42z"/>
    </clipPath>
    <clipPath id="id4">
     <path d="M-0 0l81.7 0 0 109.25 -81.7 0 0 -109.25z"/>
    </clipPath>
    <clipPath id="id5">
     <path d="M40.5 80.41c15.15,0 29.27,4.35 41.21,11.87l0 16.97 -81.7 0 0 -17.42c11.78,-7.24 25.65,-11.42 40.5,-11.42z"/>
    </clipPath>
    <clipPath id="id6">
     <path d="M-0 0l81.7 0 0 109.25 -81.7 0 0 -109.25z"/>
    </clipPath>
    <clipPath id="id7">
     <path d="M17.61 0c0.4,1.3 0.61,2.68 0.61,4.11 0,7.75 -6.28,14.03 -14.03,14.03 -1.46,0 -2.87,-0.22 -4.19,-0.64l0 -17.5 17.61 0z"/>
    </clipPath>
    <clipPath id="id8">
     <path d="M-0 0l81.7 0 0 109.25 -81.7 0 0 -109.25z"/>
    </clipPath>
    <clipPath id="id9">
     <path d="M72.56 14.25c0.3,0 0.54,0.24 0.54,0.54 0,0.3 -0.24,0.54 -0.54,0.54 -0.3,0 -0.54,-0.24 -0.54,-0.54 0,-0.3 0.24,-0.54 0.54,-0.54z"/>
    </clipPath>
    <clipPath id="id10">
     <path d="M-0 0l81.7 0 0 109.25 -81.7 0 0 -109.25z"/>
    </clipPath>
    <clipPath id="id11">
     <path d="M72.85 15.44c0.19,0 0.34,0.15 0.34,0.34 0,0.19 -0.15,0.34 -0.34,0.34 -0.19,0 -0.34,-0.15 -0.34,-0.34 0,-0.19 0.15,-0.34 0.34,-0.34z"/>
    </clipPath>
    <clipPath id="id12">
     <path d="M-0 0l81.7 0 0 109.25 -81.7 0 0 -109.25z"/>
    </clipPath>
  <linearGradient id="id13" gradientUnits="userSpaceOnUse" x1="-0.15" y1="-15.58" x2="7.76" y2="21.32">
   <stop offset="0" style="stop-opacity:1; stop-color:#ECB811"/>
   <stop offset="1" style="stop-opacity:1; stop-color:#F29A49"/>
  </linearGradient>
  <linearGradient id="id14" gradientUnits="userSpaceOnUse" x1="127.57" y1="79.32" x2="-10.56" y2="234.16">
   <stop offset="0" style="stop-opacity:1; stop-color:#F29A49"/>
   <stop offset="1" style="stop-opacity:1; stop-color:#ECB811"/>
  </linearGradient>
 </defs>
 <g id="Layer_x0020_1">
  <metadata id="CorelCorpID_0Corel-Layer"/>
  <polygon class="fil0" points="-0,0 81.7,0 81.7,109.25 -0,109.25 "/>
  <g style="clip-path:url(#id0)">
   <g id="_2425609862400">
    <path id="1" class="fil1" style="mask:url(#id1)" d="M129.47 104.85c4.23,-9.57 5.36,-24.03 -0.24,-33.22 -5.6,-9.19 -17.93,-13.12 -28.78,-18.35 -10.86,-5.23 -20.24,-11.76 -26.7,-20.05 -6.46,-8.29 -9.99,-18.35 -13.94,-29.54 -3.95,-11.19 -8.31,-23.51 -10.92,-32.98 -2.61,-9.48 -3.46,-16.11 -5.1,-22.2 -1.64,-6.09 -4.07,-11.63 -7.09,-14.05 -3.02,-2.42 -6.62,-1.74 -9.67,0.38 -3.05,2.11 -5.55,5.65 -7.78,9.02 -2.23,3.37 -4.2,6.57 -2.61,14.73 1.59,8.16 6.73,21.29 11.99,32.93 5.26,11.64 10.62,21.8 9.96,28.38 -0.66,6.58 -7.35,9.57 -13.16,4.25 -5.81,-5.32 -10.74,-18.96 -15.79,-30.14 -5.05,-11.18 -10.23,-19.91 -17.49,-22.9 -7.26,-3 -16.61,-0.27 -20.69,4.5 -4.09,4.77 -2.91,11.58 1.28,18.65 4.19,7.06 11.4,14.38 18.2,23.19 6.81,8.81 13.21,19.12 20.37,26.42 7.16,7.3 15.08,11.57 23.53,14.7 8.45,3.13 17.44,5.1 27.08,6.67 9.64,1.57 19.93,2.75 27.83,9.18 7.9,6.43 13.41,18.13 16.48,27.23 3.07,9.1 3.71,15.62 7.69,16.54 3.98,0.92 11.31,-3.75 15.54,-13.32z"/>
    <g>
     <path class="fil2" d="M-3.34 -7.25c-33.38,0 -60.43,27.06 -60.43,60.43 0,33.38 27.06,60.43 60.43,60.43 33.38,0 60.43,-27.06 60.43,-60.43 0,-33.38 -27.06,-60.43 -60.43,-60.43z"/>
     <path class="fil2" d="M-3.34 10.47c-23.59,0 -42.71,19.12 -42.71,42.71 0,23.59 19.12,42.71 42.71,42.71 23.59,0 42.71,-19.12 42.71,-42.71 0,-23.59 -19.12,-42.71 -42.71,-42.71z"/>
     <path class="fil2" d="M-3.34 30.29c-12.64,0 -22.89,10.25 -22.89,22.89 0,12.64 10.25,22.89 22.89,22.89 12.64,0 22.89,-10.25 22.89,-22.89 0,-12.64 -10.25,-22.89 -22.89,-22.89z"/>
    </g>
   </g>
   <g style="clip-path:url(#id3)">
    <polygon class="fil3" points="-36.95,80.41 117.94,80.41 117.94,235.29 -36.95,235.29 "/>
   </g>
   <g style="clip-path:url(#id4)">
   </g>
   <g style="clip-path:url(#id5)">
    <g>
     <path id="1" class="fil2" d="M78.12 44.91c42.77,0 77.44,34.67 77.44,77.44 0,42.77 -34.67,77.44 -77.44,77.44 -42.77,0 -77.44,-34.67 -77.44,-77.44 0,-42.77 34.67,-77.44 77.44,-77.44z"/>
     <path class="fil4" d="M-48.39 86.91c6.17,-5.3 12.72,-11.85 18.02,-11.85 5.3,0 9.35,6.55 17.83,9.15 8.48,2.6 21.39,1.25 32.95,-1.64 11.56,-2.89 21.77,-7.32 24.57,-3.76 2.79,3.56 -1.83,15.13 -8.58,22.16 -6.74,7.03 -15.61,9.54 -16.67,13.49 -1.06,3.95 5.68,9.35 8.09,16.28 2.41,6.94 0.48,15.42 -6.96,17.63 -7.44,2.22 -20.4,-1.83 -28.39,1.35 -8,3.18 -11.04,13.58 -10.15,21.78 0.89,8.19 5.71,14.16 -1.33,15.22 -7.03,1.06 -25.92,-2.79 -32.57,-11.37 -6.65,-8.58 -1.06,-21.87 -2.12,-32.47 -1.06,-10.6 -8.77,-18.5 -11.95,-25.15 -3.18,-6.65 -1.83,-12.05 1.73,-16.77 3.56,-4.72 9.35,-8.77 15.51,-14.07z"/>
     <path class="fil4" d="M76.23 266.61c-8,1.44 -16.97,3.76 -21.54,1.07 -4.57,-2.69 -4.73,-10.39 -10.71,-16.93 -5.99,-6.54 -17.8,-11.93 -29.23,-15.31 -11.43,-3.38 -22.48,-4.74 -23.08,-9.23 -0.6,-4.49 9.25,-12.11 18.64,-14.75 9.38,-2.64 18.29,-0.3 21.21,-3.16 2.92,-2.87 -0.16,-10.94 1.29,-18.14 1.44,-7.2 7.41,-13.53 14.94,-11.66 7.54,1.87 16.65,11.93 25.15,13.25 8.51,1.32 16.4,-6.1 19.79,-13.61 3.39,-7.51 2.27,-15.1 8.87,-12.45 6.6,2.66 20.92,15.56 22.29,26.32 1.38,10.76 -10.19,19.38 -14.65,29.05 -4.46,9.67 -1.83,20.39 -2.47,27.73 -0.63,7.34 -4.54,11.31 -10,13.57 -5.47,2.26 -12.5,2.81 -20.51,4.25z"/>
     <path class="fil4" d="M127.48 92.27c2.59,4.58 5.93,9.57 5.27,12.94 -0.67,3.37 -5.34,5.11 -8.05,10.18 -2.72,5.06 -3.48,13.43 -3.1,21.14 0.38,7.71 1.92,14.75 -0.7,16.08 -2.62,1.33 -9.38,-3.06 -13,-8.23 -3.62,-5.17 -4.1,-11.11 -6.48,-12.28 -2.38,-1.17 -6.65,2.44 -11.36,3.1 -4.71,0.66 -9.86,-1.63 -10.33,-6.64 -0.47,-5.01 3.73,-12.73 2.71,-18.21 -1.02,-5.48 -7.24,-8.72 -12.56,-9.18 -5.31,-0.46 -9.72,1.85 -9.51,-2.75 0.21,-4.6 5.03,-16.12 11.31,-19.26 6.28,-3.15 14.03,2.07 20.9,2.73 6.87,0.66 12.86,-3.25 17.48,-4.43 4.62,-1.18 7.88,0.35 10.43,3.21 2.55,2.86 4.4,7.04 6.99,11.62z"/>
    </g>
   </g>
   <g style="clip-path:url(#id6)">
    <path class="fil5" d="M40.5 80.41c42.77,0 77.44,34.67 77.44,77.44 0,42.77 -34.67,77.44 -77.44,77.44 -42.77,0 -77.44,-34.67 -77.44,-77.44 0,-42.77 34.67,-77.44 77.44,-77.44z"/>
    <g>
     <g>
      <g>
       <path class="fil6" d="M11.95 106.36c-0.06,0.09 -0.21,0.17 -0.31,0.16 -0.06,-0 -0.08,-0.01 -0.1,-0.07 -0.01,-0.03 -0.01,-0.05 0.01,-0.09 0.07,-0.12 0.32,-0.22 0.38,-0.15 0.03,0.04 0.04,0.09 0.01,0.14z"/>
       <path class="fil6" d="M11.68 105.83c-0.01,0.03 -0.04,0.08 -0.07,0.12 -0.09,0.11 -0.21,0.16 -0.28,0.13 -0.04,-0.02 -0.06,-0.09 -0.05,-0.15 0.01,-0.06 0.12,-0.19 0.18,-0.23 0.14,-0.08 0.26,-0.01 0.22,0.14z"/>
       <path class="fil6" d="M11.95 106.93c-0.03,0.08 -0.2,0.15 -0.3,0.12 -0.04,-0.01 -0.05,-0.02 -0.06,-0.06 -0.02,-0.06 0.02,-0.11 0.13,-0.16 0.11,-0.04 0.19,-0.04 0.22,-0 0.03,0.04 0.03,0.04 0.02,0.09z"/>
       <path class="fil6" d="M11.31 105.31c-0.01,0.08 -0.08,0.19 -0.15,0.27 -0.12,0.12 -0.28,0.14 -0.35,0.06 -0.04,-0.05 -0.05,-0.08 -0.04,-0.17 0.01,-0.15 0.16,-0.33 0.28,-0.37 0.15,-0.05 0.29,0.06 0.27,0.22z"/>
       <path class="fil6" d="M11.72 107.45c-0.02,0.05 -0.17,0.1 -0.23,0.09 -0.12,-0.02 -0.07,-0.15 0.07,-0.2 0.06,-0.02 0.11,-0.02 0.14,0 0.03,0.02 0.04,0.08 0.02,0.11z"/>
       <path class="fil6" d="M11.18 106.69c0.04,0.37 -0.04,0.67 -0.22,0.85 -0.16,0.16 -0.36,0.22 -0.74,0.26 -0.41,0.03 -0.6,0.09 -0.85,0.24 -0.24,0.15 -0.4,0.22 -0.58,0.24 -0.31,0.04 -0.54,-0.12 -0.69,-0.45 -0.13,-0.28 0.01,-0.59 0.32,-0.69 0.08,-0.03 0.14,-0.04 0.28,-0.04 0.15,-0.01 0.2,-0.02 0.35,-0.06 0.43,-0.13 0.72,-0.39 0.9,-0.78 0.04,-0.09 0.08,-0.16 0.12,-0.2 0.05,-0.06 0.07,-0.06 0.18,-0.1 0.11,-0.04 0.13,-0.04 0.22,-0.03 0.07,0.01 0.14,0.03 0.24,0.08 0.28,0.14 0.45,0.38 0.49,0.69z"/>
      </g>
      <g>
       <path class="fil6" d="M8.06 106.07c-0,0.06 -0.06,0.14 -0.12,0.17 -0.16,0.08 -0.41,0.07 -0.5,-0.03 -0.15,-0.15 0.04,-0.36 0.33,-0.37 0.18,-0.01 0.3,0.09 0.29,0.23z"/>
       <path class="fil6" d="M7.76 105.47c-0.04,0.06 -0.11,0.09 -0.22,0.11 -0.16,0.03 -0.27,-0.03 -0.26,-0.13 0.01,-0.06 0.09,-0.12 0.2,-0.16 0.16,-0.05 0.28,-0.01 0.3,0.08 0.01,0.04 0,0.06 -0.02,0.09z"/>
       <path class="fil6" d="M7.44 104.92c-0.02,0.08 -0.19,0.19 -0.3,0.19 -0.12,0.01 -0.15,-0.07 -0.09,-0.17 0.05,-0.08 0.14,-0.14 0.23,-0.16 0.11,-0.03 0.18,0.03 0.15,0.13z"/>
       <path class="fil6" d="M6.9 104.66c-0.06,0.11 -0.22,0.19 -0.29,0.15 -0.04,-0.02 -0.04,-0.03 -0.03,-0.1 0.01,-0.05 0.06,-0.12 0.14,-0.17 0.06,-0.04 0.1,-0.05 0.15,-0.03 0.05,0.03 0.06,0.08 0.03,0.14z"/>
       <path class="fil6" d="M7.03 106.04c-0.01,0.2 -0.09,0.39 -0.22,0.48 -0.09,0.06 -0.22,0.09 -0.37,0.07 -0.17,-0.02 -0.3,-0.02 -0.47,0.02 -0.39,0.09 -0.68,0.3 -0.91,0.66 -0.11,0.18 -0.21,0.26 -0.36,0.31 -0.18,0.06 -0.38,0.01 -0.5,-0.12 -0.11,-0.11 -0.17,-0.24 -0.21,-0.4 -0.03,-0.14 -0.03,-0.15 -0.01,-0.25 0.06,-0.24 0.23,-0.41 0.6,-0.62 0.29,-0.16 0.4,-0.27 0.66,-0.65 0.22,-0.31 0.37,-0.44 0.6,-0.49 0.23,-0.05 0.48,0.01 0.75,0.19 0.14,0.1 0.22,0.18 0.29,0.27 0.08,0.12 0.14,0.37 0.14,0.52z"/>
       <path class="fil6" d="M6.35 104.56c-0.03,0.08 -0.2,0.18 -0.25,0.14 -0.04,-0.03 -0.04,-0.08 0.01,-0.14 0.06,-0.08 0.14,-0.12 0.19,-0.11 0.05,0.02 0.07,0.05 0.05,0.11z"/>
      </g>
     </g>
     <g>
      <g>
       <path class="fil6" d="M16.76 100.2c-0.03,0.1 -0.15,0.22 -0.25,0.24 -0.06,0.01 -0.08,0.01 -0.11,-0.04 -0.02,-0.03 -0.02,-0.05 -0.01,-0.09 0.04,-0.14 0.25,-0.3 0.33,-0.25 0.04,0.03 0.06,0.08 0.05,0.13z"/>
       <path class="fil6" d="M16.35 99.76c0,0.03 -0.02,0.09 -0.03,0.13 -0.06,0.13 -0.16,0.22 -0.23,0.21 -0.04,-0.01 -0.09,-0.07 -0.09,-0.13 -0,-0.07 0.06,-0.22 0.11,-0.27 0.11,-0.12 0.24,-0.08 0.25,0.07z"/>
       <path class="fil6" d="M16.91 100.75c-0.01,0.09 -0.15,0.2 -0.26,0.2 -0.04,0 -0.06,-0.01 -0.08,-0.04 -0.04,-0.06 -0.02,-0.11 0.08,-0.19 0.09,-0.07 0.17,-0.09 0.21,-0.06 0.04,0.03 0.04,0.03 0.04,0.08z"/>
       <path class="fil6" d="M15.86 99.37c0.01,0.08 -0.02,0.21 -0.08,0.3 -0.08,0.15 -0.23,0.21 -0.32,0.15 -0.06,-0.04 -0.07,-0.07 -0.09,-0.15 -0.03,-0.15 0.06,-0.36 0.17,-0.44 0.13,-0.09 0.3,-0.02 0.32,0.14z"/>
       <path class="fil6" d="M16.83 101.32c-0.01,0.05 -0.13,0.15 -0.2,0.15 -0.12,0.02 -0.11,-0.13 0.02,-0.22 0.05,-0.04 0.1,-0.05 0.13,-0.04 0.03,0.01 0.06,0.06 0.05,0.1z"/>
       <path class="fil6" d="M16.11 100.73c0.14,0.34 0.15,0.66 0.02,0.88 -0.11,0.2 -0.28,0.32 -0.64,0.45 -0.39,0.15 -0.55,0.25 -0.75,0.47 -0.19,0.22 -0.33,0.32 -0.49,0.39 -0.29,0.12 -0.55,0.04 -0.79,-0.24 -0.2,-0.24 -0.15,-0.57 0.12,-0.75 0.07,-0.05 0.13,-0.07 0.25,-0.12 0.14,-0.05 0.19,-0.07 0.32,-0.15 0.38,-0.24 0.59,-0.57 0.64,-1 0.01,-0.09 0.03,-0.18 0.06,-0.23 0.03,-0.07 0.05,-0.08 0.14,-0.15 0.1,-0.07 0.11,-0.07 0.21,-0.09 0.07,-0.01 0.15,-0.01 0.25,0.01 0.31,0.05 0.54,0.24 0.66,0.53z"/>
      </g>
      <g>
       <path class="fil6" d="M12.94 100.99c0.01,0.06 -0.02,0.15 -0.07,0.2 -0.13,0.12 -0.38,0.18 -0.49,0.11 -0.18,-0.1 -0.06,-0.36 0.22,-0.45 0.17,-0.06 0.32,0 0.34,0.14z"/>
       <path class="fil6" d="M12.48 100.51c-0.02,0.07 -0.08,0.12 -0.18,0.17 -0.15,0.07 -0.27,0.05 -0.29,-0.05 -0.01,-0.06 0.05,-0.14 0.15,-0.2 0.14,-0.09 0.26,-0.09 0.31,-0 0.02,0.03 0.02,0.05 0.01,0.09z"/>
       <path class="fil6" d="M12.03 100.06c0,0.08 -0.13,0.24 -0.23,0.27 -0.11,0.04 -0.17,-0.02 -0.13,-0.14 0.03,-0.09 0.09,-0.17 0.18,-0.21 0.1,-0.05 0.18,-0.02 0.18,0.09z"/>
       <path class="fil6" d="M11.44 99.96c-0.02,0.12 -0.16,0.25 -0.24,0.22 -0.04,-0.01 -0.05,-0.02 -0.05,-0.09 -0,-0.05 0.03,-0.13 0.08,-0.2 0.05,-0.06 0.08,-0.07 0.14,-0.07 0.06,0.01 0.08,0.06 0.07,0.13z"/>
       <path class="fil6" d="M11.94 101.26c0.05,0.19 0.02,0.4 -0.08,0.52 -0.06,0.09 -0.19,0.15 -0.34,0.17 -0.17,0.02 -0.29,0.07 -0.45,0.15 -0.35,0.19 -0.57,0.48 -0.69,0.88 -0.06,0.2 -0.13,0.31 -0.26,0.39 -0.16,0.11 -0.36,0.12 -0.51,0.03 -0.13,-0.08 -0.23,-0.18 -0.31,-0.33 -0.07,-0.13 -0.07,-0.13 -0.08,-0.24 -0.01,-0.24 0.11,-0.46 0.41,-0.76 0.23,-0.23 0.31,-0.37 0.46,-0.81 0.12,-0.36 0.23,-0.53 0.45,-0.64 0.21,-0.12 0.47,-0.12 0.77,-0.02 0.16,0.05 0.26,0.11 0.35,0.18 0.1,0.09 0.24,0.32 0.27,0.47z"/>
       <path class="fil6" d="M10.88 100.02c-0,0.09 -0.14,0.22 -0.21,0.21 -0.05,-0.01 -0.06,-0.07 -0.03,-0.14 0.03,-0.09 0.1,-0.16 0.16,-0.16 0.06,0 0.08,0.03 0.08,0.09z"/>
      </g>
     </g>
     <g>
      <g>
       <path class="fil6" d="M20.66 94.17c-0.01,0.11 -0.1,0.25 -0.2,0.29 -0.06,0.03 -0.08,0.02 -0.12,-0.02 -0.02,-0.02 -0.03,-0.04 -0.03,-0.08 0.01,-0.14 0.19,-0.34 0.27,-0.3 0.05,0.02 0.08,0.06 0.07,0.11z"/>
       <path class="fil6" d="M20.17 93.82c0.01,0.03 0,0.09 -0.01,0.14 -0.03,0.14 -0.11,0.24 -0.19,0.25 -0.04,0 -0.1,-0.05 -0.12,-0.11 -0.02,-0.06 0.01,-0.22 0.06,-0.29 0.08,-0.14 0.22,-0.12 0.25,0.02z"/>
       <path class="fil6" d="M20.91 94.67c0.01,0.09 -0.1,0.22 -0.21,0.25 -0.04,0.01 -0.06,0 -0.08,-0.02 -0.05,-0.05 -0.04,-0.11 0.04,-0.2 0.08,-0.09 0.15,-0.12 0.2,-0.1 0.05,0.02 0.05,0.02 0.06,0.07z"/>
       <path class="fil6" d="M19.6 93.53c0.02,0.07 0.02,0.21 -0.01,0.31 -0.05,0.16 -0.18,0.25 -0.29,0.21 -0.06,-0.03 -0.09,-0.05 -0.12,-0.13 -0.05,-0.14 -0.01,-0.36 0.08,-0.46 0.11,-0.12 0.29,-0.08 0.34,0.07z"/>
       <path class="fil6" d="M20.95 95.24c-0,0.05 -0.1,0.17 -0.16,0.19 -0.12,0.04 -0.14,-0.1 -0.03,-0.22 0.04,-0.04 0.09,-0.07 0.12,-0.06 0.03,0 0.07,0.05 0.07,0.09z"/>
       <path class="fil6" d="M20.12 94.82c0.21,0.31 0.28,0.61 0.2,0.85 -0.07,0.22 -0.22,0.37 -0.54,0.57 -0.35,0.22 -0.49,0.35 -0.64,0.61 -0.15,0.25 -0.26,0.38 -0.4,0.48 -0.26,0.17 -0.53,0.15 -0.82,-0.08 -0.24,-0.19 -0.26,-0.53 -0.04,-0.76 0.06,-0.06 0.11,-0.1 0.23,-0.16 0.13,-0.08 0.17,-0.11 0.28,-0.21 0.32,-0.31 0.46,-0.68 0.43,-1.11 -0.01,-0.09 -0,-0.18 0.01,-0.23 0.02,-0.07 0.03,-0.09 0.11,-0.17 0.08,-0.09 0.09,-0.1 0.19,-0.13 0.07,-0.03 0.14,-0.04 0.25,-0.04 0.31,-0.01 0.58,0.13 0.75,0.39z"/>
      </g>
      <g>
       <path class="fil6" d="M17.07 95.7c0.02,0.05 0.01,0.15 -0.03,0.21 -0.1,0.15 -0.33,0.25 -0.46,0.21 -0.2,-0.07 -0.13,-0.34 0.12,-0.49 0.16,-0.09 0.31,-0.06 0.37,0.07z"/>
       <path class="fil6" d="M16.52 95.32c-0.01,0.07 -0.05,0.13 -0.14,0.2 -0.13,0.1 -0.25,0.1 -0.29,0.01 -0.02,-0.06 0.02,-0.15 0.1,-0.23 0.12,-0.11 0.24,-0.14 0.3,-0.07 0.02,0.03 0.03,0.05 0.03,0.09z"/>
       <path class="fil6" d="M15.99 94.97c0.02,0.08 -0.08,0.26 -0.17,0.31 -0.1,0.06 -0.17,0.01 -0.15,-0.11 0.01,-0.09 0.06,-0.18 0.13,-0.25 0.09,-0.07 0.17,-0.05 0.19,0.05z"/>
       <path class="fil6" d="M15.39 94.99c0,0.12 -0.11,0.27 -0.19,0.27 -0.05,-0 -0.05,-0.01 -0.07,-0.07 -0.01,-0.05 0,-0.13 0.04,-0.21 0.03,-0.06 0.07,-0.09 0.12,-0.09 0.06,-0 0.09,0.04 0.09,0.11z"/>
       <path class="fil6" d="M16.14 96.16c0.08,0.18 0.09,0.39 0.03,0.53 -0.05,0.1 -0.15,0.18 -0.3,0.23 -0.16,0.06 -0.27,0.12 -0.41,0.24 -0.3,0.26 -0.46,0.58 -0.5,1 -0.02,0.21 -0.07,0.33 -0.17,0.44 -0.14,0.13 -0.33,0.19 -0.5,0.13 -0.15,-0.05 -0.26,-0.13 -0.37,-0.26 -0.09,-0.11 -0.1,-0.11 -0.12,-0.22 -0.06,-0.24 0.01,-0.47 0.25,-0.82 0.18,-0.27 0.23,-0.42 0.29,-0.88 0.05,-0.38 0.12,-0.56 0.31,-0.72 0.18,-0.15 0.43,-0.21 0.75,-0.17 0.17,0.02 0.28,0.05 0.38,0.11 0.12,0.07 0.3,0.26 0.36,0.4z"/>
       <path class="fil6" d="M14.85 95.15c0.01,0.09 -0.09,0.25 -0.16,0.24 -0.05,-0 -0.07,-0.05 -0.06,-0.13 0.02,-0.09 0.07,-0.17 0.12,-0.18 0.05,-0.01 0.09,0.01 0.1,0.07z"/>
      </g>
     </g>
     <g>
      <g>
       <path class="fil6" d="M25.35 90.21c-0.04,0.1 -0.18,0.2 -0.28,0.21 -0.06,0 -0.08,-0 -0.11,-0.05 -0.01,-0.03 -0.01,-0.05 0,-0.09 0.05,-0.13 0.28,-0.26 0.35,-0.2 0.04,0.04 0.05,0.08 0.03,0.13z"/>
       <path class="fil6" d="M24.99 89.73c-0,0.03 -0.03,0.09 -0.05,0.13 -0.08,0.13 -0.18,0.19 -0.26,0.18 -0.04,-0.01 -0.08,-0.08 -0.07,-0.14 0,-0.07 0.08,-0.21 0.15,-0.26 0.12,-0.1 0.25,-0.05 0.23,0.1z"/>
       <path class="fil6" d="M25.43 90.78c-0.02,0.09 -0.17,0.18 -0.28,0.17 -0.04,-0 -0.06,-0.01 -0.07,-0.05 -0.03,-0.06 -0,-0.11 0.1,-0.17 0.1,-0.06 0.18,-0.07 0.22,-0.04 0.04,0.03 0.04,0.04 0.03,0.09z"/>
       <path class="fil6" d="M24.55 89.28c-0,0.08 -0.05,0.2 -0.11,0.29 -0.1,0.14 -0.25,0.18 -0.34,0.11 -0.05,-0.04 -0.07,-0.07 -0.07,-0.16 -0.01,-0.15 0.1,-0.35 0.22,-0.41 0.14,-0.07 0.3,0.02 0.3,0.18z"/>
       <path class="fil6" d="M25.28 91.33c-0.02,0.05 -0.15,0.13 -0.21,0.13 -0.12,0 -0.1,-0.14 0.04,-0.21 0.05,-0.03 0.11,-0.04 0.14,-0.02 0.03,0.02 0.05,0.07 0.04,0.11z"/>
       <path class="fil6" d="M24.63 90.66c0.1,0.36 0.07,0.67 -0.08,0.87 -0.14,0.18 -0.32,0.28 -0.7,0.37 -0.4,0.1 -0.58,0.18 -0.8,0.37 -0.22,0.19 -0.36,0.28 -0.53,0.33 -0.3,0.08 -0.55,-0.03 -0.75,-0.34 -0.17,-0.26 -0.08,-0.58 0.21,-0.73 0.07,-0.04 0.13,-0.06 0.27,-0.08 0.15,-0.03 0.19,-0.05 0.33,-0.11 0.4,-0.19 0.66,-0.5 0.76,-0.91 0.02,-0.09 0.06,-0.17 0.08,-0.22 0.04,-0.06 0.05,-0.07 0.16,-0.13 0.1,-0.05 0.12,-0.06 0.22,-0.06 0.07,-0 0.15,0.01 0.25,0.04 0.3,0.09 0.51,0.3 0.59,0.61z"/>
      </g>
      <g>
       <path class="fil6" d="M21.46 90.53c0.01,0.06 -0.04,0.15 -0.09,0.19 -0.14,0.11 -0.4,0.13 -0.5,0.05 -0.17,-0.13 -0.02,-0.37 0.27,-0.42 0.18,-0.04 0.31,0.04 0.32,0.18z"/>
       <path class="fil6" d="M21.06 89.99c-0.03,0.07 -0.09,0.11 -0.2,0.15 -0.16,0.05 -0.27,0.01 -0.28,-0.08 -0,-0.06 0.07,-0.13 0.17,-0.18 0.15,-0.07 0.27,-0.06 0.31,0.03 0.01,0.03 0.01,0.06 -0,0.09z"/>
       <path class="fil6" d="M20.67 89.49c-0.01,0.08 -0.16,0.22 -0.26,0.24 -0.11,0.02 -0.16,-0.04 -0.11,-0.16 0.04,-0.08 0.11,-0.15 0.21,-0.19 0.11,-0.04 0.18,0.01 0.17,0.11z"/>
       <path class="fil6" d="M20.09 89.31c-0.04,0.12 -0.19,0.23 -0.26,0.19 -0.04,-0.02 -0.05,-0.03 -0.04,-0.09 0,-0.05 0.05,-0.13 0.11,-0.19 0.05,-0.05 0.09,-0.06 0.14,-0.05 0.06,0.02 0.08,0.07 0.05,0.13z"/>
       <path class="fil6" d="M20.43 90.66c0.02,0.2 -0.03,0.4 -0.14,0.51 -0.07,0.08 -0.2,0.12 -0.35,0.12 -0.17,0 -0.3,0.03 -0.46,0.09 -0.37,0.15 -0.63,0.4 -0.79,0.79 -0.08,0.19 -0.17,0.29 -0.3,0.36 -0.17,0.08 -0.37,0.07 -0.51,-0.04 -0.12,-0.09 -0.21,-0.21 -0.27,-0.36 -0.05,-0.13 -0.06,-0.14 -0.05,-0.25 0.02,-0.24 0.16,-0.44 0.5,-0.7 0.26,-0.2 0.36,-0.33 0.55,-0.74 0.16,-0.34 0.3,-0.49 0.52,-0.58 0.22,-0.09 0.48,-0.06 0.77,0.08 0.15,0.07 0.25,0.14 0.33,0.23 0.09,0.1 0.2,0.34 0.21,0.5z"/>
       <path class="fil6" d="M19.53 89.3c-0.01,0.09 -0.17,0.21 -0.23,0.18 -0.04,-0.02 -0.05,-0.07 -0.01,-0.14 0.04,-0.08 0.12,-0.14 0.17,-0.14 0.05,0.01 0.08,0.04 0.07,0.1z"/>
      </g>
     </g>
     <g>
      <g>
       <path class="fil6" d="M29.22 84.62c-0.03,0.1 -0.15,0.22 -0.25,0.24 -0.06,0.01 -0.08,0.01 -0.11,-0.04 -0.02,-0.03 -0.02,-0.05 -0.01,-0.09 0.04,-0.14 0.25,-0.3 0.33,-0.24 0.04,0.03 0.06,0.08 0.05,0.13z"/>
       <path class="fil6" d="M28.81 84.18c0,0.03 -0.02,0.09 -0.03,0.13 -0.06,0.13 -0.16,0.22 -0.23,0.21 -0.04,-0.01 -0.09,-0.07 -0.09,-0.13 -0,-0.07 0.06,-0.22 0.11,-0.27 0.11,-0.12 0.25,-0.08 0.25,0.07z"/>
       <path class="fil6" d="M29.37 85.17c-0.01,0.09 -0.15,0.2 -0.26,0.2 -0.04,0 -0.06,-0.01 -0.08,-0.04 -0.04,-0.06 -0.02,-0.11 0.08,-0.18 0.09,-0.07 0.17,-0.09 0.21,-0.06 0.04,0.03 0.04,0.03 0.04,0.08z"/>
       <path class="fil6" d="M28.31 83.79c0.01,0.08 -0.02,0.21 -0.08,0.3 -0.08,0.15 -0.23,0.21 -0.32,0.15 -0.06,-0.04 -0.07,-0.07 -0.09,-0.15 -0.03,-0.15 0.06,-0.36 0.17,-0.44 0.13,-0.09 0.3,-0.02 0.32,0.14z"/>
       <path class="fil6" d="M29.29 85.74c-0.01,0.05 -0.13,0.15 -0.2,0.15 -0.12,0.02 -0.11,-0.13 0.02,-0.22 0.05,-0.04 0.1,-0.05 0.13,-0.04 0.03,0.01 0.06,0.06 0.05,0.1z"/>
       <path class="fil6" d="M28.56 85.15c0.14,0.34 0.15,0.66 0.02,0.88 -0.11,0.2 -0.28,0.32 -0.65,0.45 -0.39,0.15 -0.56,0.25 -0.75,0.47 -0.19,0.22 -0.33,0.32 -0.49,0.39 -0.29,0.12 -0.55,0.04 -0.79,-0.24 -0.2,-0.24 -0.15,-0.57 0.12,-0.75 0.07,-0.05 0.13,-0.07 0.25,-0.12 0.14,-0.05 0.19,-0.07 0.32,-0.15 0.38,-0.24 0.59,-0.57 0.64,-1 0.01,-0.09 0.03,-0.18 0.06,-0.22 0.03,-0.07 0.05,-0.08 0.14,-0.15 0.1,-0.07 0.11,-0.07 0.21,-0.09 0.07,-0.01 0.15,-0.01 0.25,0.01 0.31,0.05 0.54,0.24 0.66,0.53z"/>
      </g>
      <g>
       <path class="fil6" d="M25.4 85.41c0.01,0.06 -0.02,0.15 -0.07,0.2 -0.13,0.12 -0.38,0.18 -0.49,0.11 -0.18,-0.1 -0.06,-0.36 0.22,-0.45 0.17,-0.06 0.32,0 0.34,0.14z"/>
       <path class="fil6" d="M24.94 84.92c-0.02,0.07 -0.08,0.12 -0.18,0.17 -0.15,0.07 -0.27,0.05 -0.29,-0.05 -0.01,-0.06 0.05,-0.14 0.15,-0.2 0.14,-0.09 0.26,-0.09 0.31,-0 0.02,0.03 0.02,0.06 0.01,0.09z"/>
       <path class="fil6" d="M24.48 84.48c0,0.08 -0.13,0.24 -0.23,0.27 -0.11,0.04 -0.17,-0.02 -0.13,-0.14 0.03,-0.09 0.09,-0.17 0.18,-0.21 0.1,-0.05 0.18,-0.02 0.18,0.09z"/>
       <path class="fil6" d="M23.89 84.38c-0.02,0.12 -0.16,0.25 -0.24,0.22 -0.04,-0.01 -0.05,-0.02 -0.05,-0.09 -0,-0.05 0.03,-0.13 0.08,-0.2 0.05,-0.06 0.08,-0.07 0.14,-0.06 0.06,0.01 0.08,0.06 0.07,0.13z"/>
       <path class="fil6" d="M24.4 85.68c0.05,0.19 0.02,0.4 -0.08,0.52 -0.06,0.09 -0.19,0.15 -0.34,0.17 -0.17,0.02 -0.29,0.07 -0.45,0.15 -0.35,0.19 -0.57,0.48 -0.69,0.88 -0.06,0.2 -0.13,0.31 -0.26,0.39 -0.16,0.1 -0.36,0.12 -0.51,0.03 -0.13,-0.08 -0.23,-0.18 -0.31,-0.33 -0.07,-0.13 -0.07,-0.13 -0.08,-0.24 -0.01,-0.24 0.11,-0.46 0.41,-0.76 0.23,-0.23 0.31,-0.37 0.46,-0.81 0.12,-0.36 0.23,-0.53 0.45,-0.64 0.21,-0.12 0.47,-0.12 0.77,-0.02 0.16,0.05 0.26,0.11 0.35,0.18 0.1,0.09 0.24,0.32 0.27,0.47z"/>
       <path class="fil6" d="M23.33 84.43c-0,0.09 -0.14,0.22 -0.21,0.21 -0.05,-0.01 -0.06,-0.07 -0.03,-0.14 0.03,-0.09 0.1,-0.16 0.16,-0.16 0.06,0 0.08,0.03 0.08,0.09z"/>
      </g>
     </g>
    </g>
    <path class="fil7" d="M4.19 -9.92c7.75,0 14.03,6.28 14.03,14.03 0,7.75 -6.28,14.03 -14.03,14.03 -7.75,0 -14.03,-6.28 -14.03,-14.03 0,-7.75 6.28,-14.03 14.03,-14.03z"/>
   </g>
   <g style="clip-path:url(#id7)">
    <g>
     <path id="1" class="fil2" d="M11.01 -16.35c7.75,0 14.03,6.28 14.03,14.03 0,7.75 -6.28,14.03 -14.03,14.03 -7.75,0 -14.03,-6.28 -14.03,-14.03 0,-7.75 6.28,-14.03 14.03,-14.03z"/>
    </g>
   </g>
   <g style="clip-path:url(#id8)">
    <path class="fil5" d="M4.19 -9.92c7.75,0 14.03,6.28 14.03,14.03 0,7.75 -6.28,14.03 -14.03,14.03 -7.75,0 -14.03,-6.28 -14.03,-14.03 0,-7.75 6.28,-14.03 14.03,-14.03z"/>
    <g>
     <path class="fil8" d="M67.77 7.72c5.41,0 9.8,4.39 9.8,9.8 0,5.41 -4.39,9.8 -9.8,9.8 -5.41,0 -9.8,-4.39 -9.8,-9.8 0,-5.41 4.39,-9.8 9.8,-9.8z"/>
     <path class="fil8" d="M67.77 10.59c3.82,0 6.92,3.1 6.92,6.92 0,3.82 -3.1,6.92 -6.92,6.92 -3.82,0 -6.92,-3.1 -6.92,-6.92 0,-3.82 3.1,-6.92 6.92,-6.92z"/>
     <path class="fil8" d="M67.77 13.8c2.05,0 3.71,1.66 3.71,3.71 0,2.05 -1.66,3.71 -3.71,3.71 -2.05,0 -3.71,-1.66 -3.71,-3.71 0,-2.05 1.66,-3.71 3.71,-3.71z"/>
    </g>
    <path class="fil9" d="M72.56 14.25c0.3,0 0.54,0.24 0.54,0.54 0,0.3 -0.24,0.54 -0.54,0.54 -0.3,0 -0.54,-0.24 -0.54,-0.54 0,-0.3 0.24,-0.54 0.54,-0.54z"/>
   </g>
   <g style="clip-path:url(#id9)">
    <g>
     <path id="1" class="fil2" d="M72.86 14c0.3,0 0.54,0.24 0.54,0.54 0,0.3 -0.24,0.54 -0.54,0.54 -0.3,0 -0.54,-0.24 -0.54,-0.54 0,-0.3 0.24,-0.54 0.54,-0.54z"/>
    </g>
   </g>
   <g style="clip-path:url(#id10)">
    <path class="fil5" d="M72.56 14.25c0.3,0 0.54,0.24 0.54,0.54 0,0.3 -0.24,0.54 -0.54,0.54 -0.3,0 -0.54,-0.24 -0.54,-0.54 0,-0.3 0.24,-0.54 0.54,-0.54z"/>
    <path class="fil9" d="M72.85 15.44c0.19,0 0.34,0.15 0.34,0.34 0,0.19 -0.15,0.34 -0.34,0.34 -0.19,0 -0.34,-0.15 -0.34,-0.34 0,-0.19 0.15,-0.34 0.34,-0.34z"/>
   </g>
   <g style="clip-path:url(#id11)">
    <g>
     <path id="1" class="fil2" d="M73.28 14.96c0.3,0 0.54,0.24 0.54,0.54 0,0.3 -0.24,0.54 -0.54,0.54 -0.3,0 -0.54,-0.24 -0.54,-0.54 0,-0.3 0.24,-0.54 0.54,-0.54z"/>
    </g>
   </g>
   <g style="clip-path:url(#id12)">
    <path class="fil5" d="M72.85 15.44c0.19,0 0.34,0.15 0.34,0.34 0,0.19 -0.15,0.34 -0.34,0.34 -0.19,0 -0.34,-0.15 -0.34,-0.34 0,-0.19 0.15,-0.34 0.34,-0.34z"/>
    <g>
     <g id="_2168350068720">
      <path class="fil0" d="M67.85 13.52l0 0c2.26,0 4.1,1.85 4.1,4.1l0 0c0,2.26 -1.85,4.1 -4.1,4.1l0 0c-2.26,0 -4.1,-1.85 -4.1,-4.1l0 0c0,-2.26 1.85,-4.1 4.1,-4.1z"/>
      <path class="fil10" d="M71.65 19.16c-0.21,0.52 -0.53,0.98 -0.92,1.37l-2.22 0.02c-0.75,0 -0.9,-0.06 -1.01,-0.16 -0.11,-0.1 -0.18,-0.26 -0.22,-0.39 -0.04,-0.14 -0.04,-0.25 -0.05,-0.41 -0.01,-0.16 -0.01,-0.36 -0.01,-0.99 0.01,-0.62 0.03,-1.67 0.03,-2.24 0.01,-0.58 0.01,-0.68 0.01,-0.77 0,-0.08 0.01,-0.14 0.03,-0.19 0.03,-0.05 0.07,-0.1 0.12,-0.12 0.05,-0.03 0.12,-0.04 0.23,-0.02 0.11,0.02 0.26,0.08 0.38,0.16 0.12,0.08 0.22,0.19 0.29,0.35 0.07,0.16 0.12,0.36 0.17,0.8 0.04,0.44 0.07,1.13 0.11,1.59 0.04,0.46 0.09,0.69 0.19,0.83 0.1,0.14 0.25,0.21 0.79,0.2l2.06 -0.03 0 0z"/>
      <g>
       <path class="fil11" d="M67.45 14.48c0.1,0 0.18,0.1 0.18,0.23 0,0.13 -0.08,0.23 -0.18,0.23 -0.1,0 -0.18,-0.1 -0.18,-0.23 0,-0.13 0.08,-0.23 0.18,-0.23z"/>
       <path class="fil10" d="M67.45 14.45c0.1,0 0.18,0.1 0.18,0.23 0,0.13 -0.08,0.23 -0.18,0.23 -0.1,0 -0.18,-0.1 -0.18,-0.23 0,-0.13 0.08,-0.23 0.18,-0.23z"/>
      </g>
      <g>
       <path class="fil11" d="M67.85 14.59c0.07,0 0.13,0.09 0.13,0.21 0,0.12 -0.06,0.21 -0.13,0.21 -0.07,0 -0.13,-0.09 -0.13,-0.21 0,-0.12 0.06,-0.21 0.13,-0.21z"/>
       <path class="fil10" d="M67.85 14.56c0.07,0 0.13,0.09 0.13,0.21 0,0.12 -0.06,0.21 -0.13,0.21 -0.07,0 -0.13,-0.09 -0.13,-0.21 0,-0.12 0.06,-0.21 0.13,-0.21z"/>
      </g>
      <path class="fil11" d="M68.16 14.84c0.06,0 0.1,0.08 0.1,0.17 0,0.09 -0.04,0.17 -0.1,0.17 -0.06,0 -0.1,-0.08 -0.1,-0.17 0,-0.09 0.04,-0.17 0.1,-0.17z"/>
      <path class="fil11" d="M68.39 15.16c0.06,0 0.1,0.08 0.1,0.17 0,0.09 -0.04,0.17 -0.1,0.17 -0.06,0 -0.1,-0.08 -0.1,-0.17 0,-0.09 0.04,-0.17 0.1,-0.17z"/>
      <path class="fil10" d="M68.16 14.82c0.06,0 0.1,0.08 0.1,0.17 0,0.09 -0.04,0.17 -0.1,0.17 -0.06,0 -0.1,-0.08 -0.1,-0.17 0,-0.09 0.04,-0.17 0.1,-0.17z"/>
      <path class="fil10" d="M68.39 15.13c0.06,0 0.1,0.08 0.1,0.17 0,0.09 -0.04,0.17 -0.1,0.17 -0.06,0 -0.1,-0.08 -0.1,-0.17 0,-0.09 0.04,-0.17 0.1,-0.17z"/>
      <path class="fil12" d="M67.85 21.72l0 0c-1.98,0 -3.65,-1.43 -4.02,-3.3l3.49 -3.05c-0.01,0.01 -0.01,0.02 -0.02,0.03 -0.03,0.05 -0.03,0.11 -0.03,0.19 -0,0.08 -0,0.19 -0.01,0.77 -0.01,0.58 -0.03,1.62 -0.03,2.24 -0.01,0.62 0,0.83 0.01,0.99 0.01,0.16 0.01,0.27 0.05,0.41 0.04,0.14 0.11,0.3 0.22,0.39 0.11,0.1 0.26,0.16 1.01,0.16l2.22 -0.02c-0.74,0.73 -1.76,1.19 -2.88,1.19l-0 0z"/>
     </g>
    </g>
   </g>
  </g>
  <polygon class="fil5" points="-0,0 81.7,0 81.7,109.25 -0,109.25 "/>
 </g>
</svg>
