<?xml version="1.0" encoding="UTF-8"?>
<!DOCTYPE svg PUBLIC "-//W3C//DTD SVG 1.0//EN" "http://www.w3.org/TR/2001/REC-SVG-20010904/DTD/svg10.dtd">
<!-- Creator: CorelDRAW 2020 (64-Bit Evaluation Version) -->
<svg xmlns="http://www.w3.org/2000/svg" xml:space="preserve" width="0.734295in" height="0.734299in" version="1.0" style="shape-rendering:geometricPrecision; text-rendering:geometricPrecision; image-rendering:optimizeQuality; fill-rule:evenodd; clip-rule:evenodd"
viewBox="0 0 170.82 170.82"
 xmlns:xlink="http://www.w3.org/1999/xlink"
 xmlns:xodm="http://www.corel.com/coreldraw/odm/2003">
 <defs>
  <style type="text/css">
   <![CDATA[
    .fil2 {fill:#B18A0D}
    .fil3 {fill:#D4A60F}
    .fil0 {fill:#ECB811}
    .fil1 {fill:white}
   ]]>
  </style>
 </defs>
 <g id="Layer_x0020_1">
  <metadata id="CorelCorpID_0Corel-Layer"/>
  <path class="fil0" d="M-0 0l170.82 0 0 170.82 -170.82 0 0 -170.82zm77.08 19.41c2.02,0 3.65,2.18 3.65,4.88 0,2.69 -1.63,4.88 -3.65,4.88 -2.01,0 -3.65,-2.18 -3.65,-4.88 0,-2.69 1.63,-4.88 3.65,-4.88zm8.23 2.45c1.54,0 2.79,1.95 2.79,4.36 0,2.41 -1.25,4.36 -2.79,4.36 -1.54,0 -2.79,-1.95 -2.79,-4.36 0,-2.41 1.25,-4.36 2.79,-4.36zm6.41 5.35c1.14,0 2.07,1.57 2.07,3.51 0,1.94 -0.93,3.51 -2.07,3.51 -1.14,0 -2.07,-1.57 -2.07,-3.51 0,-1.94 0.93,-3.51 2.07,-3.51zm4.88 6.48c1.14,0 2.07,1.57 2.07,3.51 0,1.94 -0.93,3.51 -2.07,3.51 -1.14,0 -2.07,-1.57 -2.07,-3.51 0,-1.94 0.93,-3.51 2.07,-3.51z"/>
  <path class="fil1" d="M121.56 118.2c-11.12,0.16 -14.3,-1.35 -16.42,-4.26 -2.12,-2.91 -3.18,-7.68 -4.04,-17.21 -0.86,-9.53 -1.52,-23.83 -2.38,-33.11 -0.86,-9.27 -1.92,-13.51 -3.44,-16.75 -1.52,-3.24 -3.51,-5.5 -6.09,-7.22 -2.58,-1.72 -5.76,-2.91 -8.01,-3.38 -2.25,-0.46 -3.58,-0.2 -4.7,0.4 -1.13,0.6 -2.05,1.52 -2.58,2.58 -0.53,1.06 -0.66,2.25 -0.73,3.97 -0.07,1.72 -0.07,3.97 -0.26,15.96 -0.2,11.98 -0.6,33.7 -0.73,46.68 -0.13,12.98 0,17.21 0.13,20.53 0.13,3.31 0.26,5.69 1.06,8.54 0.79,2.85 2.25,6.16 4.57,8.21 2.32,2.05 5.49,3.42 21.12,3.31l71.77 -0.5c0,-3.18 0,-11.36 0,-16.36 0,-5.01 0,-10.34 0,-12.11l-49.26 0.72z"/>
  <g id="_2425605153616">
   <path class="fil2" d="M80.72 24.61c0.01,0.11 0.01,0.22 0.01,0.33 0,2.69 -1.63,4.88 -3.65,4.88 -2.01,0 -3.65,-2.18 -3.65,-4.88 0,-0.11 0,-0.22 0.01,-0.33 0.13,2.54 1.71,4.55 3.64,4.55 1.93,0 3.51,-2.01 3.64,-4.55z"/>
   <path class="fil2" d="M88.1 26.5l0.01 0.3c0,2.41 -1.25,4.36 -2.79,4.36 -1.54,0 -2.79,-1.95 -2.79,-4.36l0.01 -0.3c0.1,2.27 1.31,4.06 2.79,4.06 1.48,0 2.69,-1.79 2.79,-4.06z"/>
   <path class="fil2" d="M93.79 30.95l0.01 0.24c0,1.94 -0.93,3.51 -2.07,3.51 -1.14,0 -2.07,-1.57 -2.07,-3.51l0.01 -0.24c0.07,1.83 0.97,3.27 2.07,3.27 1.1,0 1.99,-1.44 2.07,-3.27z"/>
   <path class="fil2" d="M98.67 37.43l0.01 0.24c0,1.94 -0.93,3.51 -2.07,3.51 -1.14,0 -2.07,-1.57 -2.07,-3.51l0.01 -0.24c0.07,1.83 0.97,3.27 2.07,3.27 1.1,0 1.99,-1.44 2.07,-3.27z"/>
  </g>
  <path class="fil3" d="M170.58 145.96l-26.74 24.87 -143.85 0 0 -67.34 74.3 -64.91c-0.15,0.22 -0.29,0.45 -0.41,0.68 -0.53,1.06 -0.66,2.25 -0.73,3.97 -0.07,1.72 -0.07,3.97 -0.26,15.96 -0.2,11.98 -0.6,33.7 -0.73,46.68 -0.13,12.98 0,17.21 0.13,20.53 0.13,3.31 0.26,5.69 1.06,8.54 0.79,2.85 2.25,6.16 4.57,8.21 2.32,2.05 5.49,3.42 21.12,3.31l71.53 -0.49z"/>
 </g>
</svg>
