<?xml version="1.0" encoding="UTF-8"?>
<!DOCTYPE svg PUBLIC "-//W3C//DTD SVG 1.0//EN" "http://www.w3.org/TR/2001/REC-SVG-20010904/DTD/svg10.dtd">
<!-- Creator: CorelDRAW 2020 (64-Bit Evaluation Version) -->
<svg xmlns="http://www.w3.org/2000/svg" xml:space="preserve" width="0.734295in" height="0.734303in" version="1.0" style="shape-rendering:geometricPrecision; text-rendering:geometricPrecision; image-rendering:optimizeQuality; fill-rule:evenodd; clip-rule:evenodd"
viewBox="0 0 72.23 72.23"
 xmlns:xlink="http://www.w3.org/1999/xlink"
 xmlns:xodm="http://www.corel.com/coreldraw/odm/2003">
 <defs>
  <style type="text/css">
   <![CDATA[
    .fil1 {fill:#E6E6E6}
    .fil0 {fill:white}
   ]]>
  </style>
 </defs>
 <g id="Layer_x0020_1">
  <metadata id="CorelCorpID_0Corel-Layer"/>
  <g id="_2425805461536">
   <path class="fil0" d="M36.11 0l0 0c19.86,0 36.11,16.25 36.11,36.11l0 0c0,19.86 -16.25,36.11 -36.11,36.11l-0 0c-19.86,0 -36.11,-16.25 -36.11,-36.11l0 -0c0,-19.86 16.25,-36.11 36.11,-36.11zm-3.52 8.21c0.85,0 1.54,0.92 1.54,2.06 0,1.14 -0.69,2.06 -1.54,2.06 -0.85,0 -1.54,-0.92 -1.54,-2.06 0,-1.14 0.69,-2.06 1.54,-2.06zm3.48 1.03c0.65,0 1.18,0.82 1.18,1.84 0,1.02 -0.53,1.84 -1.18,1.84 -0.65,0 -1.18,-0.82 -1.18,-1.84 0,-1.02 0.53,-1.84 1.18,-1.84zm2.71 2.26c0.48,0 0.88,0.66 0.88,1.48 0,0.82 -0.39,1.48 -0.88,1.48 -0.48,0 -0.88,-0.66 -0.88,-1.48 0,-0.82 0.39,-1.48 0.88,-1.48zm2.06 2.74c0.48,0 0.88,0.66 0.88,1.48 0,0.82 -0.39,1.48 -0.88,1.48 -0.48,0 -0.88,-0.66 -0.88,-1.48 0,-0.82 0.39,-1.48 0.88,-1.48z"/>
   <path class="fil0" d="M69.55 49.71c-1.87,4.56 -4.65,8.66 -8.1,12.08l-19.57 0.14c-6.61,0.05 -7.95,-0.53 -8.93,-1.4 -0.98,-0.87 -1.6,-2.27 -1.93,-3.47 -0.34,-1.2 -0.39,-2.21 -0.45,-3.61 -0.06,-1.4 -0.11,-3.19 -0.06,-8.68 0.06,-5.49 0.22,-14.67 0.31,-19.74 0.08,-5.07 0.08,-6.02 0.11,-6.75 0.03,-0.73 0.08,-1.23 0.31,-1.68 0.22,-0.45 0.62,-0.84 1.09,-1.09 0.48,-0.25 1.04,-0.36 1.99,-0.17 0.95,0.2 2.3,0.7 3.39,1.43 1.09,0.73 1.93,1.68 2.58,3.05 0.64,1.37 1.09,3.16 1.46,7.08 0.36,3.92 0.64,9.97 1.01,14 0.36,4.03 0.81,6.05 1.71,7.28 0.9,1.23 2.24,1.87 6.94,1.8l18.15 -0.27z"/>
   <g>
    <path class="fil1" d="M39.66 13.09l0 0.1c0,0.82 -0.39,1.48 -0.88,1.48 -0.48,0 -0.88,-0.66 -0.88,-1.48l0 -0.1c0.03,0.77 0.41,1.38 0.87,1.38 0.46,0 0.84,-0.61 0.87,-1.38z"/>
    <path class="fil1" d="M41.72 15.83l0 0.1c0,0.82 -0.39,1.48 -0.88,1.48 -0.48,0 -0.88,-0.66 -0.88,-1.48l0 -0.1c0.03,0.77 0.41,1.38 0.87,1.38 0.46,0 0.84,-0.61 0.87,-1.38z"/>
    <path class="fil1" d="M34.13 10.41c0,0.05 0,0.09 0,0.14 0,1.14 -0.69,2.06 -1.54,2.06 -0.85,0 -1.54,-0.92 -1.54,-2.06 0,-0.05 0,-0.09 0,-0.14 0.05,1.07 0.72,1.92 1.54,1.92 0.82,0 1.49,-0.85 1.54,-1.92z"/>
    <path class="fil1" d="M37.25 11.21l0 0.13c0,1.02 -0.53,1.84 -1.18,1.84 -0.65,0 -1.18,-0.82 -1.18,-1.84l0 -0.13c0.04,0.96 0.55,1.72 1.18,1.72 0.63,0 1.14,-0.76 1.18,-1.72z"/>
   </g>
   <path class="fil1" d="M36.11 72.23l-0 0c-17.46,0 -32.12,-12.55 -35.42,-29.08l30.72 -26.84c-0.07,0.09 -0.12,0.19 -0.17,0.29 -0.22,0.45 -0.28,0.95 -0.31,1.68 -0.03,0.73 -0.03,1.68 -0.11,6.75 -0.08,5.07 -0.25,14.25 -0.31,19.74 -0.06,5.49 0,7.28 0.06,8.68 0.06,1.4 0.11,2.41 0.45,3.61 0.34,1.2 0.95,2.6 1.93,3.47 0.98,0.87 2.32,1.45 8.93,1.4l19.57 -0.14c-6.53,6.45 -15.49,10.44 -25.33,10.44z"/>
  </g>
 </g>
</svg>
