<svg width="320" height="80" viewBox="0 0 320 80" fill="none" xmlns="http://www.w3.org/2000/svg">
<path fill-rule="evenodd" clip-rule="evenodd" d="M134.578 50.0786C137.384 49.6898 139.394 51.3516 139.719 53.7854C140.093 56.586 138.431 58.6055 136.028 58.9276C133.209 59.3054 131.206 57.6592 130.873 55.2655C130.473 52.391 132.12 50.4189 134.577 50.0786H134.578ZM140.014 46.9512C139.559 46.6346 139.479 46.0697 138.086 45.2347C135.498 43.6815 131.725 44.0876 129.288 45.3113C122.222 48.8603 122.32 60.1204 129.22 63.6556C130.894 64.5134 133.094 64.9487 135.254 64.7169C136.909 64.539 137.943 64.0781 139.103 63.1555C139.676 62.7002 139.806 62.3799 140.014 62.264C140.014 65.4424 139.545 67.6271 136.832 68.4018C135.535 68.7723 133.997 68.7404 132.666 68.4301C130.794 67.9939 130.634 67.4637 129.757 66.741L124.788 69.6749C125.047 70.2835 125.946 71.124 126.442 71.5328C129.779 74.2778 136.254 74.777 140.396 73.1773C142.286 72.4463 143.238 71.7008 144.5 70.3356C147.327 67.2767 146.728 62.6628 146.728 58.6557C146.728 54.0144 146.728 49.3741 146.724 44.7328H140.014V46.9503V46.9512Z" fill="white"/>
<path fill-rule="evenodd" clip-rule="evenodd" d="M262.451 56.0439C261.497 49.6322 270.517 48.9149 271.328 54.4624C272.24 60.708 263.281 61.6214 262.451 56.0439ZM271.587 46.744C271.286 46.5998 270.865 45.7265 269.192 44.9453C266.311 43.5993 261.958 44.2518 259.703 46.1827C259.441 46.4072 259.235 46.5596 259.005 46.7604C258.729 47.0022 258.603 47.1902 258.365 47.4576C253.924 52.4411 254.978 61.7017 260.655 64.9541C263.181 66.4014 266.719 66.8431 269.532 65.3803C270.047 65.112 270.709 64.6183 271.11 64.2168C271.256 64.0698 271.423 63.8371 271.587 63.755V65.7298H278.302V36.7377H271.587V46.7449V46.744Z" fill="white"/>
<path fill-rule="evenodd" clip-rule="evenodd" d="M197.465 65.6978C197.962 65.7717 203.307 65.7453 204.18 65.7234C204.18 62.6873 204.18 59.653 204.18 56.6179C204.18 55.2362 204.013 53.652 204.599 52.5068C205.779 50.1962 209.29 50.3039 210.431 52.4128C211.047 53.5507 210.886 55.1286 210.886 56.554C210.886 59.6101 210.886 62.6654 210.886 65.7206C212.652 65.7891 215.736 65.7298 217.641 65.7289V52.5387C217.641 48.027 214.88 44.2308 209.923 44.2308C208.107 44.2308 206.655 44.688 205.273 45.6589C204.796 45.9938 204.533 46.3826 204.183 46.6317L204.179 36.7432L197.464 36.7368V65.696L197.465 65.6978Z" fill="white"/>
<path fill-rule="evenodd" clip-rule="evenodd" d="M151.276 65.7289C152.553 65.7289 157.111 65.7828 158.031 65.7116V56.5823L158.27 56.8515C159.227 58.3125 163.638 65.0819 163.977 65.7253C164.867 65.7444 171.482 65.7864 171.847 65.6942L166.217 57.4392C165.936 57.0213 164.428 54.9288 164.352 54.6422C164.441 54.4871 164.462 54.477 164.569 54.3356C164.668 54.2042 164.685 54.1513 164.768 54.0272L166.956 50.9217C167.097 50.7155 167.225 50.5485 167.379 50.3258L168.693 48.4551C168.856 48.2224 168.981 48.0763 169.117 47.861L170.432 45.9875C170.61 45.7329 171.215 44.9517 171.278 44.7327H163.815C163.662 44.7957 158.63 52.6839 158.192 53.1885C158.181 53.2013 158.169 53.215 158.158 53.2268L158.033 36.7597C157.449 36.6876 152.298 36.7351 151.279 36.736V65.728L151.276 65.7289Z" fill="white"/>
<path fill-rule="evenodd" clip-rule="evenodd" d="M238.27 53.224C238.378 52.1828 239.289 51.0959 239.806 50.688C240.612 50.052 241.477 49.6523 242.802 49.6596C244.011 49.6659 245.121 49.989 245.845 50.6433C246.493 51.2301 247.292 52.2549 247.278 53.224H238.27ZM252.512 61.8733C252.389 61.7108 248.332 59.3227 247.836 59.0443C247.524 59.2341 247.062 59.977 245.593 60.4907C244.586 60.843 243.378 60.9288 242.244 60.7426C240.761 60.5008 239.593 59.789 238.828 58.6145C238.662 58.359 238.286 57.6344 238.285 57.2776H253.379C253.602 53.9166 253.277 51.3414 251.739 48.8884C248.783 44.1723 241.842 42.9458 237.224 45.6224C236.093 46.2785 235.09 47.0533 234.414 47.9129C233.655 48.8766 233.009 49.697 232.464 51.1215C231.39 53.923 231.455 57.0531 232.567 59.778C233.528 62.1342 235.325 63.9101 237.586 65.0152C239.95 66.1705 243.487 66.635 246.34 65.9579C248.222 65.5116 250.064 64.5781 251.376 63.2804L252.247 62.2392C252.357 62.105 252.462 61.9134 252.511 61.8723L252.512 61.8733Z" fill="white"/>
<path fill-rule="evenodd" clip-rule="evenodd" d="M289.569 44.7793L282.875 44.7583V55.1514C282.875 56.2164 282.95 57.5378 282.898 58.5562C282.817 60.0911 283.625 61.9783 284.261 63.0113C285.929 65.7216 289.406 66.8039 292.568 66.0492C293.815 65.7508 295.006 65.1193 295.884 64.2661C296.055 64.1 296.066 64.0151 296.263 63.8764L296.272 65.7198L303.026 65.728V49.9891C303.026 49.0318 303.151 45.3852 302.99 44.7318H296.299C296.216 45.1534 296.271 53.1675 296.271 53.8118C296.271 55.2345 296.429 56.8177 295.868 58.0086C294.827 60.2225 291.139 60.2426 290.022 58.0771C289.397 56.8625 289.563 55.4206 289.563 53.9395C289.563 50.9153 289.487 47.7907 289.568 44.7783L289.569 44.7793Z" fill="white"/>
<path fill-rule="evenodd" clip-rule="evenodd" d="M107.274 44.7583L100.564 44.7519L100.586 65.7244L107.27 65.7289C107.27 62.6919 107.27 59.654 107.27 56.617C107.27 55.1724 107.109 53.7142 107.678 52.5023C108.69 50.3477 112.293 50.1762 113.514 52.4119C114.141 53.5609 113.976 55.1213 113.976 56.5541C113.976 59.6066 113.976 62.66 113.976 65.7143L120.731 65.7308C120.731 62.629 120.731 59.5281 120.731 56.4272C120.731 53.5727 120.968 50.4363 119.693 48.1466C118.467 45.9437 116.746 44.6561 114.231 44.3148C112.253 44.0456 110.102 44.4298 108.539 45.5276C108.095 45.8397 107.365 46.5843 107.27 46.6464L107.274 44.7601V44.7583Z" fill="white"/>
<path fill-rule="evenodd" clip-rule="evenodd" d="M186.219 56.4892C186.219 57.4018 186.212 58.3171 186.219 59.2296C186.224 59.925 186.195 59.8958 185.822 60.2371C184.489 61.4545 181.985 61.6753 180.7 60.7326C180.241 60.3959 179.953 59.4632 180.151 58.641C180.684 56.4226 184.388 56.4892 186.219 56.4892V56.4892ZM174.435 48.0307C174.714 48.1712 175.199 48.5189 175.5 48.7315L178.764 50.9509C179.037 50.8669 179.635 50.3221 180.778 49.9617C181.561 49.7144 182.626 49.5784 183.505 49.7043C185.381 49.9717 186.177 51.1279 186.22 53.1356C182.912 53.1356 179.927 53.0607 177.145 54.3575C175.843 54.9643 174.902 55.6643 174.284 56.6626C173.52 57.8982 173.16 59.0754 173.329 60.8513C173.89 66.7281 181.314 67.2948 184.849 65.0582C185.85 64.4248 185.878 64.1036 186.211 63.8171L186.221 65.7289H192.926C192.926 62.0969 192.926 58.4649 192.926 54.8329C192.926 53.0699 193.005 51.3369 192.578 49.6852C191.805 46.6892 189.774 45.1032 186.856 44.5082C183.192 43.7617 178.854 44.4142 175.869 46.7121C175.474 47.0159 174.621 47.6903 174.435 48.0307Z" fill="white"/>
<path fill-rule="evenodd" clip-rule="evenodd" d="M89.3004 56.4893C89.3004 57.4018 89.294 58.3171 89.3004 59.2297C89.3049 59.8575 89.2958 59.9141 88.9463 60.2152C87.5355 61.4289 85.0999 61.7483 83.7894 60.7254C83.1424 60.2207 82.5374 58.1665 84.5003 57.1673C85.7943 56.5093 87.6861 56.4883 89.3013 56.4883L89.3004 56.4893ZM77.5165 48.0307L79.6875 49.4717C80.0771 49.7363 80.3947 49.9736 80.7698 50.2364C80.9687 50.376 81.1193 50.4435 81.3209 50.5795C81.5345 50.7237 81.6668 50.877 81.9095 50.9573C82.7226 50.5029 82.6889 50.3404 83.9144 49.9535C86.3099 49.1988 89.2995 49.5967 89.3013 53.1356C85.7532 53.1356 81.3693 53.069 78.6344 55.3148C78.0832 55.7674 77.7574 56.0494 77.3559 56.6499C76.6432 57.7157 76.2727 59.2497 76.4159 60.8422C77.0392 67.7658 87.1148 67.2164 89.2766 63.8335L89.3031 65.7289H96.0077C96.0159 62.0969 96.0159 58.465 96.0159 54.833C96.0159 52.2696 96.1628 49.9581 94.8697 47.7369C92.3693 43.4433 84.9593 43.4889 80.6283 45.649C79.8034 46.0605 77.8605 47.4038 77.5174 48.0307H77.5165Z" fill="white"/>
<path fill-rule="evenodd" clip-rule="evenodd" d="M224.545 58.9039C222.494 59.3592 221.215 61.2555 221.643 63.3161C222.332 66.6488 226.716 67.2109 228.324 64.6968C230.365 61.5074 227.467 58.255 224.545 58.9039Z" fill="white"/>
<path fill-rule="evenodd" clip-rule="evenodd" d="M282.897 58.5562C282.949 57.5378 282.874 56.2164 282.874 55.1515V44.7583L289.568 44.7793C289.527 44.7109 289.599 44.6963 289.258 44.6871C288.132 44.657 283.142 44.657 282.844 44.7282C282.745 45.1398 282.809 50.7365 282.809 51.6463C282.809 52.4631 282.708 58.3153 282.897 58.5562V58.5562Z" fill="white"/>
<path fill-rule="evenodd" clip-rule="evenodd" d="M100.586 65.7244L100.564 44.7519L107.274 44.7583C107.217 44.7218 107.265 44.7182 107.139 44.6963L100.765 44.6899C100.618 44.7054 100.794 44.6744 100.653 44.7099L100.563 44.7528C100.445 45.0804 100.534 61.5448 100.524 65.0929L100.528 65.5966C100.554 65.7298 100.538 65.6486 100.586 65.7253V65.7244Z" fill="white"/>
<path fill-rule="evenodd" clip-rule="evenodd" d="M0.594045 5.08652H71.082V53.5635L50.7547 53.861C46.1645 53.9276 44.8532 53.3062 43.9781 52.1034C43.1038 50.9016 42.6667 48.9341 42.3117 45.0001C41.9558 41.066 41.683 35.1645 41.328 31.339C40.973 27.5145 40.5359 25.766 39.9071 24.4273C39.2784 23.0886 38.4589 22.1596 37.393 21.4487C36.3272 20.7387 35.0158 20.2469 34.0877 20.0552C33.1587 19.8636 32.6121 19.9731 32.1485 20.2186C31.684 20.465 31.3008 20.8473 31.0827 21.2835C30.8637 21.7207 30.8098 22.2125 30.7824 22.9234C30.7551 23.6343 30.7551 24.5624 30.6729 29.5075C30.5908 34.4527 30.4265 43.414 30.3718 48.7689C30.317 54.1238 30.3718 55.8723 30.4265 57.2384C30.4813 58.6045 30.536 59.5883 30.8637 60.7627C31.1913 61.9381 31.7926 63.3033 32.749 64.1501C33.7054 64.9979 35.014 65.561 41.4649 65.5162L71.0811 65.3118V75.5727H0.593132V5.08469L0.594045 5.08652ZM32.3995 13.0942C33.2317 13.0942 33.9052 13.9949 33.9052 15.1064C33.9052 16.2179 33.2308 17.1186 32.3995 17.1186C31.5682 17.1186 30.8938 16.2179 30.8938 15.1064C30.8938 13.9949 31.5682 13.0942 32.3995 13.0942ZM35.7979 14.1044C36.4339 14.1044 36.9504 14.9093 36.9504 15.9022C36.9504 16.895 36.4339 17.6999 35.7979 17.6999C35.1618 17.6999 34.6453 16.895 34.6453 15.9022C34.6453 14.9093 35.1618 14.1044 35.7979 14.1044ZM38.4425 16.3119C38.9143 16.3119 39.2966 16.9598 39.2966 17.7602C39.2966 18.5596 38.9143 19.2084 38.4425 19.2084C37.9707 19.2084 37.5883 18.5596 37.5883 17.7602C37.5883 16.9598 37.9707 16.3119 38.4425 16.3119ZM40.4565 18.9857C40.9283 18.9857 41.3106 19.6336 41.3106 20.434C41.3106 21.2334 40.9283 21.8822 40.4565 21.8822C39.9847 21.8822 39.6023 21.2334 39.6023 20.434C39.6023 19.6336 39.9847 18.9857 40.4565 18.9857Z" fill="white"/>
<path fill-rule="evenodd" clip-rule="evenodd" d="M33.9025 15.2433C33.9043 15.288 33.9061 15.3336 33.9061 15.3802C33.9061 16.4917 33.2317 17.3924 32.4004 17.3924C31.5691 17.3924 30.8947 16.4917 30.8947 15.3802C30.8947 15.3345 30.8965 15.2889 30.8983 15.2433C30.9513 16.2909 31.6028 17.1186 32.4004 17.1186C33.198 17.1186 33.8505 16.2909 33.9025 15.2433Z" fill="white"/>
<path fill-rule="evenodd" clip-rule="evenodd" d="M36.9476 16.0225L36.9504 16.1448C36.9504 17.1377 36.4339 17.9416 35.7978 17.9416C35.1618 17.9416 34.6453 17.1368 34.6453 16.1448L34.648 16.0225C34.6881 16.9579 35.1882 17.698 35.7978 17.698C36.4074 17.698 36.9075 16.9588 36.9476 16.0225V16.0225Z" fill="white"/>
<path fill-rule="evenodd" clip-rule="evenodd" d="M39.2948 17.8577L39.2966 17.9562C39.2966 18.7556 38.9143 19.4045 38.4425 19.4045C37.9707 19.4045 37.5883 18.7556 37.5883 17.9562L37.5901 17.8577C37.6202 18.6114 37.9898 19.2074 38.4425 19.2074C38.8951 19.2074 39.2647 18.6114 39.2948 17.8577V17.8577Z" fill="white"/>
<path fill-rule="evenodd" clip-rule="evenodd" d="M41.3088 20.5316L41.3106 20.6301C41.3106 21.4295 40.9283 22.0784 40.4565 22.0784C39.9847 22.0784 39.6023 21.4295 39.6023 20.6301L39.6042 20.5316C39.6343 21.2853 40.0039 21.8812 40.4565 21.8812C40.9091 21.8812 41.2787 21.2853 41.3088 20.5316V20.5316Z" fill="white"/>
<path fill-rule="evenodd" clip-rule="evenodd" d="M70.9834 65.3137L59.9506 75.5745H0.594048V47.788L31.2515 21.0034C31.1876 21.0937 31.131 21.1887 31.0827 21.2854C30.8637 21.7225 30.8098 22.2144 30.7824 22.9253C30.7551 23.6361 30.7551 24.5642 30.6729 29.5094C30.5908 34.4545 30.4265 43.4159 30.3718 48.7708C30.317 54.1257 30.3718 55.8741 30.4265 57.2402C30.4813 58.6064 30.536 59.5901 30.8637 60.7646C31.1913 61.9399 31.7926 63.3051 32.749 64.152C33.7054 64.9997 35.014 65.5628 41.4649 65.5181L70.9825 65.3137H70.9834Z" fill="white"/>
</svg>
